name ./resultDataOpenSim/trcMotMarkerGrf/sub06/grf-12-01.mot
datacolumns 19
datarows 30
range 0.98000000 1.09600000
endheader

                time	     ground_force_vx	     ground_force_vy	     ground_force_vz	     ground_force_px	     ground_force_py	     ground_force_pz	   l_ground_force_vx	   l_ground_force_vy	   l_ground_force_vz	   l_ground_force_px	   l_ground_force_py	   l_ground_force_pz	     ground_torque_x	     ground_torque_y	     ground_torque_z	   l_ground_torque_x	   l_ground_torque_y	   l_ground_torque_z	
          0.98000000	          0.00000000	          0.00000000	          0.00000000	          0.00000000	          0.00000000	          0.00000000	         78.87598964	        633.07305029	         21.65010298	          0.12678905	         -0.02500127	         -0.05167055	          0.00000000	          0.00000000	          0.00000000	          0.00000000	         -2.98542534	          0.00000000	
          0.98400000	          0.00000000	          0.00000000	          0.00000000	          0.00000000	          0.00000000	          0.00000000	         83.49920597	        647.11715957	         22.47392315	          0.12757274	         -0.02500100	         -0.05142817	          0.00000000	          0.00000000	          0.00000000	          0.00000000	         -3.04025588	          0.00000000	
          0.98800000	          0.00000000	          0.00000000	          0.00000000	          0.00000000	          0.00000000	          0.00000000	         88.32920287	        660.65472614	         23.22956053	          0.12826556	         -0.02500112	         -0.05124839	          0.00000000	          0.00000000	          0.00000000	          0.00000000	         -3.09166484	          0.00000000	
          0.99200000	          0.00000000	          0.00000000	          0.00000000	          0.00000000	          0.00000000	          0.00000000	         93.42719820	        673.41865222	         23.81795678	          0.12885904	         -0.02500192	         -0.05110399	          0.00000000	          0.00000000	          0.00000000	          0.00000000	         -3.14195039	          0.00000000	
          0.99600000	          0.00000000	          0.00000000	          0.00000000	          0.00000000	          0.00000000	          0.00000000	         98.80785171	        685.10902036	         24.17749371	          0.12935112	         -0.02500100	         -0.05097349	          0.00000000	          0.00000000	          0.00000000	          0.00000000	         -3.19276449	          0.00000000	
          1.00000000	          0.00000000	          0.00000000	          0.00000000	          0.00000000	          0.00000000	          0.00000000	        104.45202776	        695.38867624	         24.29693405	          0.12976211	         -0.02500100	         -0.05084022	          0.00000000	          0.00000000	          0.00000000	          0.00000000	         -3.24419321	          0.00000000	
          1.00400000	          0.00000000	          0.00000000	          0.00000000	          0.00000000	          0.00000000	          0.00000000	        110.32433460	        703.91026181	         24.19696756	          0.13013774	         -0.02500100	         -0.05068679	          0.00000000	          0.00000000	          0.00000000	          0.00000000	         -3.29433763	          0.00000000	
          1.00800000	          0.00000000	          0.00000000	          0.00000000	          0.00000000	          0.00000000	          0.00000000	        116.37338242	        710.38690808	         23.90459180	          0.13054938	         -0.02500100	         -0.05048726	          0.00000000	          0.00000000	          0.00000000	          0.00000000	         -3.33938334	          0.00000000	
          1.01200000	          0.00000000	          0.00000000	          0.00000000	          0.00000000	          0.00000000	          0.00000000	        122.54150306	        714.63409117	         23.44320946	          0.13104964	         -0.02500100	         -0.05023251	          0.00000000	          0.00000000	          0.00000000	          0.00000000	         -3.37400777	          0.00000000	
          1.01600000	          0.00000000	          0.00000000	          0.00000000	          0.00000000	          0.00000000	          0.00000000	        128.77071243	        716.54590455	         22.84148510	          0.13164549	         -0.02500100	         -0.04994425	          0.00000000	          0.00000000	          0.00000000	          0.00000000	         -3.39207599	          0.00000000	
          1.02000000	          0.00000000	          0.00000000	          0.00000000	          0.00000000	          0.00000000	          0.00000000	        134.98233517	        716.06493767	         22.14158748	          0.13230597	         -0.02500100	         -0.04964754	          0.00000000	          0.00000000	          0.00000000	          0.00000000	         -3.38765059	          0.00000000	
          1.02400000	          0.00000000	          0.00000000	          0.00000000	          0.00000000	          0.00000000	          0.00000000	        141.06540235	        713.16699370	         21.39383361	          0.13298556	         -0.02500100	         -0.04934961	          0.00000000	          0.00000000	          0.00000000	          0.00000000	         -3.35619807	          0.00000000	
          1.02800000	          0.00000000	          0.00000000	          0.00000000	          0.00000000	          0.00000000	          0.00000000	        146.89556600	        707.83612353	         20.64202764	          0.13365809	         -0.02500100	         -0.04904624	          0.00000000	          0.00000000	          0.00000000	          0.00000000	         -3.29565604	          0.00000000	
          1.03200000	          0.00000000	          0.00000000	          0.00000000	          0.00000000	          0.00000000	          0.00000000	        152.36331076	        700.05629179	         19.90381397	          0.13433326	         -0.02500032	         -0.04873217	          0.00000000	          0.00000000	          0.00000000	          0.00000000	         -3.20698774	          0.00000000	
          1.03600000	          0.00000000	          0.00000000	          0.00000000	          0.00000000	          0.00000000	          0.00000000	        157.39304606	        689.85079804	         19.15501768	          0.13502210	         -0.02500000	         -0.04840239	          0.00000000	          0.00000000	          0.00000000	          0.00000000	         -3.09404259	          0.00000000	
          1.04000000	          0.00000000	          0.00000000	          0.00000000	          0.00000000	          0.00000000	          0.00000000	        161.93894973	        677.30840229	         18.33244914	          0.13571181	         -0.02500000	         -0.04805741	          0.00000000	          0.00000000	          0.00000000	          0.00000000	         -2.96281212	          0.00000000	
          1.04400000	          0.00000000	          0.00000000	          0.00000000	          0.00000000	          0.00000000	          0.00000000	        165.94957839	        662.52689530	         17.36000935	          0.13637209	         -0.02500000	         -0.04770690	          0.00000000	          0.00000000	          0.00000000	          0.00000000	         -2.82033670	          0.00000000	
          1.04800000	          0.00000000	          0.00000000	          0.00000000	          0.00000000	          0.00000000	          0.00000000	        169.33140009	        645.51581000	         16.18900119	          0.13697021	         -0.02499948	         -0.04737016	          0.00000000	          0.00000000	          0.00000000	          0.00000000	         -2.67353502	          0.00000000	
          1.05200000	          0.00000000	          0.00000000	          0.00000000	          0.00000000	          0.00000000	          0.00000000	        171.95418099	        626.14325459	         14.82642001	          0.13748329	         -0.02499900	         -0.04706984	          0.00000000	          0.00000000	          0.00000000	          0.00000000	         -2.52820788	          0.00000000	
          1.05600000	          0.00000000	          0.00000000	          0.00000000	          0.00000000	          0.00000000	          0.00000000	        173.68407096	        604.15160209	         13.32150851	          0.13793071	         -0.02499900	         -0.04681895	          0.00000000	          0.00000000	          0.00000000	          0.00000000	         -2.38845249	          0.00000000	
          1.06000000	          0.00000000	          0.00000000	          0.00000000	          0.00000000	          0.00000000	          0.00000000	        174.39319103	        579.21622656	         11.72002468	          0.13838599	         -0.02499900	         -0.04660767	          0.00000000	          0.00000000	          0.00000000	          0.00000000	         -2.25656292	          0.00000000	
          1.06400000	          0.00000000	          0.00000000	          0.00000000	          0.00000000	          0.00000000	          0.00000000	        173.93438353	        551.02461249	         10.03770709	          0.13894499	         -0.02499864	         -0.04640358	          0.00000000	          0.00000000	          0.00000000	          0.00000000	         -2.13321028	          0.00000000	
          1.06800000	          0.00000000	          0.00000000	          0.00000000	          0.00000000	          0.00000000	          0.00000000	        172.10475739	        519.37212663	          8.27897612	          0.13968196	         -0.02499800	         -0.04617081	          0.00000000	          0.00000000	          0.00000000	          0.00000000	         -2.01762623	          0.00000000	
          1.07200000	          0.00000000	          0.00000000	          0.00000000	          0.00000000	          0.00000000	          0.00000000	        168.61963896	        484.23243316	          6.47152967	          0.14061780	         -0.02499800	         -0.04589275	          0.00000000	          0.00000000	          0.00000000	          0.00000000	         -1.90775060	          0.00000000	
          1.07600000	          0.00000000	          0.00000000	          0.00000000	          0.00000000	          0.00000000	          0.00000000	        163.12111982	        445.75628123	          4.68093195	          0.14175017	         -0.02499800	         -0.04557595	          0.00000000	          0.00000000	          0.00000000	          0.00000000	         -1.80048402	          0.00000000	
          1.08000000	          0.00000000	          0.00000000	          0.00000000	          0.00000000	          0.00000000	          0.00000000	        155.23640623	        404.27302418	          2.99577983	          0.14309853	         -0.02499780	         -0.04524175	          0.00000000	          0.00000000	          0.00000000	          0.00000000	         -1.69209658	          0.00000000	
          1.08400000	         -3.34974867	         56.47768939	         -1.54388692	          0.76731579	          0.00000000	          0.03065760	        144.67521441	        360.39431934	          1.50188759	          0.14466324	         -0.02499700	         -0.04493700	          0.00000000	          0.37289808	          0.00000000	          0.00000000	         -1.57870417	          0.00000000	
          1.08800000	        -18.07251082	        270.45428483	          2.81595917	          0.77543493	          0.00000000	          0.03038579	        131.35051392	        315.16550106	          0.27075914	          0.14647298	         -0.02499688	         -0.04469114	          0.00000000	          0.70101964	          0.00000000	          0.00000000	         -1.45672855	          0.00000000	
          1.09200000	        -36.39678871	        465.74085841	          6.64741026	          0.78276898	          0.00000000	          0.03022068	        115.52218011	        270.07574920	         -0.63841764	          0.14862412	         -0.02499600	         -0.04447229	          0.00000000	          1.00566141	          0.00000000	          0.00000000	         -1.32335628	          0.00000000	
          1.09600000	        -60.63828582	        627.41380807	          9.13085034	          0.78978912	          0.00000000	          0.03029724	         97.92457657	        226.82177069	         -1.17381532	          0.15123654	         -0.02499599	         -0.04424184	          0.00000000	          1.25661350	          0.00000000	          0.00000000	         -1.17713837	          0.00000000	
